<svg width="697" height="271" viewBox="0 0 697 271" fill="none" xmlns="http://www.w3.org/2000/svg">
<g clip-path="url(#clip0_53_2)">
<circle r="10" transform="matrix(1 0 -0.716065 0.698034 198.996 42.0487)" fill="#6FCF97"/>
<circle r="10" transform="matrix(1 0 -0.716065 0.698034 224.996 42.0487)" fill="#6FCF97"/>
<circle r="10" transform="matrix(1 0 -0.716065 0.698034 250.996 42.0487)" fill="#6FCF97"/>
<circle r="10" transform="matrix(1 0 -0.716065 0.698034 276.996 42.0487)" fill="#6FCF97"/>
<circle r="10" transform="matrix(1 0 -0.716065 0.698034 302.996 42.0487)" fill="#6FCF97"/>
<circle r="10" transform="matrix(1 0 -0.716065 0.698034 328.996 42.0487)" fill="#6FCF97"/>
<circle r="10" transform="matrix(1 0 -0.716065 0.698034 354.996 42.0487)" fill="#6FCF97"/>
<circle r="10" transform="matrix(1 0 -0.716065 0.698034 380.996 42.0487)" fill="#6FCF97"/>
<circle r="10" transform="matrix(1 0 -0.716065 0.698034 406.996 42.0487)" fill="#6FCF97"/>
<circle r="10" transform="matrix(1 0 -0.716065 0.698034 432.996 42.0487)" fill="#6FCF97"/>
<circle r="10" transform="matrix(1 0 -0.716065 0.698034 458.996 42.0487)" fill="#6FCF97"/>
<circle r="10" transform="matrix(1 0 -0.716065 0.698034 484.996 42.0487)" fill="#6FCF97"/>
<circle r="10" transform="matrix(1 0 -0.716065 0.698034 510.996 42.0487)" fill="#6FCF97"/>
<circle r="10" transform="matrix(1 0 -0.716065 0.698034 536.996 42.0487)" fill="#6FCF97"/>
<circle r="10" transform="matrix(1 0 -0.716065 0.698034 562.996 42.0487)" fill="#6FCF97"/>
<circle r="10" transform="matrix(1 0 -0.716065 0.698034 588.996 42.0487)" fill="#6FCF97"/>
<circle r="10" transform="matrix(1 0 -0.716065 0.698034 614.996 42.0487)" fill="#6FCF97"/>
<circle r="10" transform="matrix(1 0 -0.716065 0.698034 640.996 42.0487)" fill="#6FCF97"/>
<circle r="10" transform="matrix(1 0 -0.716065 0.698034 666.996 42.0487)" fill="#6FCF97"/>
</g>
<g clip-path="url(#clip1_53_2)">
<circle r="10" transform="matrix(1 0 -0.716065 0.698034 180.611 59.9706)" fill="#6FCF97"/>
<circle r="10" transform="matrix(1 0 -0.716065 0.698034 206.611 59.9706)" fill="#6FCF97"/>
<circle r="10" transform="matrix(1 0 -0.716065 0.698034 232.611 59.9706)" fill="#6FCF97"/>
<circle r="10" transform="matrix(1 0 -0.716065 0.698034 258.611 59.9706)" fill="#6FCF97"/>
<circle r="10" transform="matrix(1 0 -0.716065 0.698034 284.611 59.9706)" fill="#6FCF97"/>
<circle r="10" transform="matrix(1 0 -0.716065 0.698034 310.611 59.9706)" fill="#6FCF97"/>
<circle r="10" transform="matrix(1 0 -0.716065 0.698034 336.611 59.9706)" fill="#6FCF97"/>
<circle r="10" transform="matrix(1 0 -0.716065 0.698034 362.611 59.9706)" fill="#6FCF97"/>
<circle r="10" transform="matrix(1 0 -0.716065 0.698034 388.611 59.9706)" fill="#6FCF97"/>
<circle r="10" transform="matrix(1 0 -0.716065 0.698034 414.611 59.9706)" fill="#6FCF97"/>
<circle r="10" transform="matrix(1 0 -0.716065 0.698034 440.611 59.9706)" fill="#6FCF97"/>
<circle r="10" transform="matrix(1 0 -0.716065 0.698034 466.611 59.9706)" fill="#6FCF97"/>
<circle r="10" transform="matrix(1 0 -0.716065 0.698034 492.611 59.9706)" fill="#6FCF97"/>
<circle r="10" transform="matrix(1 0 -0.716065 0.698034 518.611 59.9706)" fill="#6FCF97"/>
<circle r="10" transform="matrix(1 0 -0.716065 0.698034 544.611 59.9706)" fill="#6FCF97"/>
<circle r="10" transform="matrix(1 0 -0.716065 0.698034 570.611 59.9706)" fill="#6FCF97"/>
<circle r="10" transform="matrix(1 0 -0.716065 0.698034 596.611 59.9706)" fill="#6FCF97"/>
<circle r="10" transform="matrix(1 0 -0.716065 0.698034 622.611 59.9706)" fill="#6FCF97"/>
<circle r="10" transform="matrix(1 0 -0.716065 0.698034 648.611 59.9706)" fill="#6FCF97"/>
</g>
<g clip-path="url(#clip2_53_2)">
<circle r="10" transform="matrix(1 0 -0.716065 0.698034 162.227 77.8922)" fill="#6FCF97"/>
<circle r="10" transform="matrix(1 0 -0.716065 0.698034 188.227 77.8922)" fill="#6FCF97"/>
<circle r="10" transform="matrix(1 0 -0.716065 0.698034 214.227 77.8922)" fill="#6FCF97"/>
<circle r="10" transform="matrix(1 0 -0.716065 0.698034 240.227 77.8922)" fill="#6FCF97"/>
<circle r="10" transform="matrix(1 0 -0.716065 0.698034 266.227 77.8922)" fill="#6FCF97"/>
<circle r="10" transform="matrix(1 0 -0.716065 0.698034 292.227 77.8922)" fill="#6FCF97"/>
<circle r="10" transform="matrix(1 0 -0.716065 0.698034 318.227 77.8922)" fill="#6FCF97"/>
<circle r="10" transform="matrix(1 0 -0.716065 0.698034 344.227 77.8922)" fill="#6FCF97"/>
<circle r="10" transform="matrix(1 0 -0.716065 0.698034 370.227 77.8922)" fill="#6FCF97"/>
<circle r="10" transform="matrix(1 0 -0.716065 0.698034 396.227 77.8922)" fill="#6FCF97"/>
<circle r="10" transform="matrix(1 0 -0.716065 0.698034 422.227 77.8922)" fill="#6FCF97"/>
<circle r="10" transform="matrix(1 0 -0.716065 0.698034 448.227 77.8922)" fill="#6FCF97"/>
<circle r="10" transform="matrix(1 0 -0.716065 0.698034 474.227 77.8922)" fill="#6FCF97"/>
<circle r="10" transform="matrix(1 0 -0.716065 0.698034 500.227 77.8922)" fill="#6FCF97"/>
<circle r="10" transform="matrix(1 0 -0.716065 0.698034 526.227 77.8922)" fill="#6FCF97"/>
<circle r="10" transform="matrix(1 0 -0.716065 0.698034 552.227 77.8922)" fill="#6FCF97"/>
<circle r="10" transform="matrix(1 0 -0.716065 0.698034 578.227 77.8922)" fill="#6FCF97"/>
<circle r="10" transform="matrix(1 0 -0.716065 0.698034 604.227 77.8922)" fill="#6FCF97"/>
<circle r="10" transform="matrix(1 0 -0.716065 0.698034 630.227 77.8922)" fill="#6FCF97"/>
</g>
<g clip-path="url(#clip3_53_2)">
<circle r="10" transform="matrix(1 0 -0.716065 0.698034 143.842 95.8143)" fill="#6FCF97"/>
<circle r="10" transform="matrix(1 0 -0.716065 0.698034 169.842 95.8143)" fill="#6FCF97"/>
<circle r="10" transform="matrix(1 0 -0.716065 0.698034 195.842 95.8143)" fill="#6FCF97"/>
<circle r="10" transform="matrix(1 0 -0.716065 0.698034 221.842 95.8143)" fill="#6FCF97"/>
<circle r="10" transform="matrix(1 0 -0.716065 0.698034 247.842 95.8143)" fill="#6FCF97"/>
<circle r="10" transform="matrix(1 0 -0.716065 0.698034 273.842 95.8143)" fill="#6FCF97"/>
<circle r="10" transform="matrix(1 0 -0.716065 0.698034 299.842 95.8143)" fill="#6FCF97"/>
<circle r="10" transform="matrix(1 0 -0.716065 0.698034 325.842 95.8143)" fill="#6FCF97"/>
<circle r="10" transform="matrix(1 0 -0.716065 0.698034 351.842 95.8143)" fill="#6FCF97"/>
<circle r="10" transform="matrix(1 0 -0.716065 0.698034 377.842 95.8143)" fill="#6FCF97"/>
<circle r="10" transform="matrix(1 0 -0.716065 0.698034 403.842 95.8143)" fill="#6FCF97"/>
<circle r="10" transform="matrix(1 0 -0.716065 0.698034 429.842 95.8143)" fill="#6FCF97"/>
<circle r="10" transform="matrix(1 0 -0.716065 0.698034 455.842 95.8143)" fill="#6FCF97"/>
<circle r="10" transform="matrix(1 0 -0.716065 0.698034 481.842 95.8143)" fill="#6FCF97"/>
<circle r="10" transform="matrix(1 0 -0.716065 0.698034 507.842 95.8143)" fill="#6FCF97"/>
<circle r="10" transform="matrix(1 0 -0.716065 0.698034 533.842 95.8143)" fill="#6FCF97"/>
<circle r="10" transform="matrix(1 0 -0.716065 0.698034 559.842 95.8143)" fill="#6FCF97"/>
<circle r="10" transform="matrix(1 0 -0.716065 0.698034 585.842 95.8143)" fill="#6FCF97"/>
<circle r="10" transform="matrix(1 0 -0.716065 0.698034 611.842 95.8143)" fill="#6FCF97"/>
</g>
<g clip-path="url(#clip4_53_2)">
<circle r="10" transform="matrix(1 0 -0.716065 0.698034 125.457 113.736)" fill="#6FCF97"/>
<circle r="10" transform="matrix(1 0 -0.716065 0.698034 151.457 113.736)" fill="#6FCF97"/>
<circle r="10" transform="matrix(1 0 -0.716065 0.698034 177.457 113.736)" fill="#6FCF97"/>
<circle r="10" transform="matrix(1 0 -0.716065 0.698034 203.457 113.736)" fill="#6FCF97"/>
<circle r="10" transform="matrix(1 0 -0.716065 0.698034 229.457 113.736)" fill="#6FCF97"/>
<circle r="10" transform="matrix(1 0 -0.716065 0.698034 255.457 113.736)" fill="#6FCF97"/>
<circle r="10" transform="matrix(1 0 -0.716065 0.698034 281.457 113.736)" fill="#6FCF97"/>
<circle r="10" transform="matrix(1 0 -0.716065 0.698034 307.457 113.736)" fill="#6FCF97"/>
<circle r="10" transform="matrix(1 0 -0.716065 0.698034 333.457 113.736)" fill="#6FCF97"/>
<circle r="10" transform="matrix(1 0 -0.716065 0.698034 359.457 113.736)" fill="#6FCF97"/>
<circle r="10" transform="matrix(1 0 -0.716065 0.698034 385.457 113.736)" fill="#6FCF97"/>
<circle r="10" transform="matrix(1 0 -0.716065 0.698034 411.457 113.736)" fill="#6FCF97"/>
<circle r="10" transform="matrix(1 0 -0.716065 0.698034 437.457 113.736)" fill="#6FCF97"/>
<circle r="10" transform="matrix(1 0 -0.716065 0.698034 463.457 113.736)" fill="#6FCF97"/>
<circle r="10" transform="matrix(1 0 -0.716065 0.698034 489.457 113.736)" fill="#6FCF97"/>
<circle r="10" transform="matrix(1 0 -0.716065 0.698034 515.457 113.736)" fill="#6FCF97"/>
<circle r="10" transform="matrix(1 0 -0.716065 0.698034 541.457 113.736)" fill="#6FCF97"/>
<circle r="10" transform="matrix(1 0 -0.716065 0.698034 567.457 113.736)" fill="#6FCF97"/>
<circle r="10" transform="matrix(1 0 -0.716065 0.698034 593.457 113.736)" fill="#6FCF97"/>
</g>
<rect x="100" width="485" height="271" fill="url(#paint0_linear_53_2)"/>
<rect width="485" height="127.084" transform="matrix(1 0 -0.716065 0.698034 91 139.224)" fill="url(#paint1_linear_53_2)"/>
<defs>
<linearGradient id="paint0_linear_53_2" x1="342.5" y1="0" x2="342.5" y2="271" gradientUnits="userSpaceOnUse">
<stop stop-color="#6FCF97"/>
<stop offset="1" stop-color="#56CCF2" stop-opacity="0"/>
</linearGradient>
<linearGradient id="paint1_linear_53_2" x1="242.5" y1="0" x2="242.5" y2="127.084" gradientUnits="userSpaceOnUse">
<stop stop-color="#6FCF97"/>
<stop offset="1" stop-color="#56CCF2" stop-opacity="0"/>
</linearGradient>
<clipPath id="clip0_53_2">
<rect width="500" height="25.6747" fill="white" transform="matrix(1 0 -0.716065 0.698034 196.157 35.0684)"/>
</clipPath>
<clipPath id="clip1_53_2">
<rect width="500" height="25.6747" fill="white" transform="matrix(1 0 -0.716065 0.698034 177.772 52.9902)"/>
</clipPath>
<clipPath id="clip2_53_2">
<rect width="500" height="25.6747" fill="white" transform="matrix(1 0 -0.716065 0.698034 159.387 70.9119)"/>
</clipPath>
<clipPath id="clip3_53_2">
<rect width="500" height="25.6747" fill="white" transform="matrix(1 0 -0.716065 0.698034 141.002 88.834)"/>
</clipPath>
<clipPath id="clip4_53_2">
<rect width="500" height="25.6747" fill="white" transform="matrix(1 0 -0.716065 0.698034 122.618 106.756)"/>
</clipPath>
</defs>
</svg>
